G75*
%MOIN*%
%OFA0B0*%
%FSLAX25Y25*%
%IPPOS*%
%LPD*%
%AMOC8*
5,1,8,0,0,1.08239X$1,22.5*
%
%ADD10C,0.00400*%
%ADD11C,0.05937*%
%ADD12C,0.07677*%
%ADD13C,0.23622*%
%ADD14C,0.03562*%
D10*
X0024406Y0009130D02*
X0024406Y0170547D01*
X0026406Y0170547D02*
X0026478Y0171466D01*
X0027046Y0173214D01*
X0028127Y0174701D01*
X0029613Y0175781D01*
X0031361Y0176349D01*
X0032280Y0176421D01*
X0058905Y0176421D01*
X0058388Y0175173D01*
X0058388Y0167339D01*
X0059114Y0165586D01*
X0060455Y0164245D01*
X0062208Y0163519D01*
X0064105Y0163519D01*
X0065857Y0164245D01*
X0067199Y0165586D01*
X0067925Y0167339D01*
X0067925Y0175173D01*
X0067408Y0176421D01*
X0068905Y0176421D01*
X0068388Y0175173D01*
X0068388Y0167339D01*
X0069114Y0165586D01*
X0070455Y0164245D01*
X0072208Y0163519D01*
X0074105Y0163519D01*
X0075857Y0164245D01*
X0077199Y0165586D01*
X0077925Y0167339D01*
X0077925Y0175173D01*
X0077408Y0176421D01*
X0088905Y0176421D01*
X0088388Y0175173D01*
X0088388Y0167339D01*
X0089114Y0165586D01*
X0090455Y0164245D01*
X0092208Y0163519D01*
X0094105Y0163519D01*
X0095857Y0164245D01*
X0097199Y0165586D01*
X0097925Y0167339D01*
X0097925Y0175173D01*
X0097408Y0176421D01*
X0098905Y0176421D01*
X0098388Y0175173D01*
X0098388Y0167339D01*
X0099114Y0165586D01*
X0100455Y0164245D01*
X0102208Y0163519D01*
X0104105Y0163519D01*
X0105857Y0164245D01*
X0107199Y0165586D01*
X0107925Y0167339D01*
X0107925Y0175173D01*
X0107408Y0176421D01*
X0193698Y0176421D01*
X0194616Y0176349D01*
X0196364Y0175781D01*
X0197851Y0174701D01*
X0198931Y0173214D01*
X0199499Y0171466D01*
X0199572Y0170547D01*
X0199572Y0009130D01*
X0199499Y0008211D01*
X0198931Y0006463D01*
X0197851Y0004976D01*
X0196364Y0003896D01*
X0194616Y0003328D01*
X0193698Y0003256D01*
X0032280Y0003256D01*
X0031361Y0003328D01*
X0029613Y0003896D01*
X0028127Y0004976D01*
X0027046Y0006463D01*
X0026478Y0008211D01*
X0026406Y0009130D01*
X0026406Y0170547D01*
X0026412Y0170623D02*
X0058388Y0170623D01*
X0058388Y0170225D02*
X0026406Y0170225D01*
X0026406Y0169826D02*
X0058388Y0169826D01*
X0058388Y0169428D02*
X0026406Y0169428D01*
X0026406Y0169029D02*
X0058388Y0169029D01*
X0058388Y0168631D02*
X0026406Y0168631D01*
X0026406Y0168232D02*
X0058388Y0168232D01*
X0058388Y0167834D02*
X0026406Y0167834D01*
X0026406Y0167435D02*
X0058388Y0167435D01*
X0058513Y0167037D02*
X0026406Y0167037D01*
X0026406Y0166638D02*
X0058678Y0166638D01*
X0058843Y0166240D02*
X0026406Y0166240D01*
X0026406Y0165841D02*
X0059008Y0165841D01*
X0059257Y0165443D02*
X0026406Y0165443D01*
X0026406Y0165044D02*
X0059656Y0165044D01*
X0060054Y0164646D02*
X0026406Y0164646D01*
X0026406Y0164247D02*
X0060453Y0164247D01*
X0061412Y0163849D02*
X0026406Y0163849D01*
X0026406Y0163450D02*
X0199572Y0163450D01*
X0199572Y0163052D02*
X0026406Y0163052D01*
X0026406Y0162653D02*
X0199572Y0162653D01*
X0199572Y0162254D02*
X0026406Y0162254D01*
X0026406Y0161856D02*
X0199572Y0161856D01*
X0199572Y0161457D02*
X0026406Y0161457D01*
X0026406Y0161059D02*
X0199572Y0161059D01*
X0199572Y0160660D02*
X0026406Y0160660D01*
X0026406Y0160262D02*
X0199572Y0160262D01*
X0199572Y0159863D02*
X0026406Y0159863D01*
X0026406Y0159465D02*
X0199572Y0159465D01*
X0199572Y0159066D02*
X0026406Y0159066D01*
X0026406Y0158668D02*
X0199572Y0158668D01*
X0199572Y0158269D02*
X0026406Y0158269D01*
X0026406Y0157871D02*
X0199572Y0157871D01*
X0199572Y0157472D02*
X0026406Y0157472D01*
X0026406Y0157074D02*
X0199572Y0157074D01*
X0199572Y0156675D02*
X0026406Y0156675D01*
X0026406Y0156277D02*
X0199572Y0156277D01*
X0199572Y0155878D02*
X0026406Y0155878D01*
X0026406Y0155480D02*
X0199572Y0155480D01*
X0199572Y0155081D02*
X0026406Y0155081D01*
X0026406Y0154683D02*
X0199572Y0154683D01*
X0199572Y0154284D02*
X0026406Y0154284D01*
X0026406Y0153886D02*
X0199572Y0153886D01*
X0199572Y0153487D02*
X0026406Y0153487D01*
X0026406Y0153089D02*
X0199572Y0153089D01*
X0199572Y0152690D02*
X0026406Y0152690D01*
X0026406Y0152292D02*
X0199572Y0152292D01*
X0199572Y0151893D02*
X0026406Y0151893D01*
X0026406Y0151495D02*
X0199572Y0151495D01*
X0199572Y0151096D02*
X0026406Y0151096D01*
X0026406Y0150698D02*
X0199572Y0150698D01*
X0199572Y0150299D02*
X0026406Y0150299D01*
X0026406Y0149901D02*
X0199572Y0149901D01*
X0199572Y0149502D02*
X0026406Y0149502D01*
X0026406Y0149104D02*
X0199572Y0149104D01*
X0199572Y0148705D02*
X0026406Y0148705D01*
X0026406Y0148307D02*
X0199572Y0148307D01*
X0199572Y0147908D02*
X0026406Y0147908D01*
X0026406Y0147510D02*
X0199572Y0147510D01*
X0199572Y0147111D02*
X0026406Y0147111D01*
X0026406Y0146713D02*
X0199572Y0146713D01*
X0199572Y0146314D02*
X0026406Y0146314D01*
X0026406Y0145916D02*
X0199572Y0145916D01*
X0199572Y0145517D02*
X0190924Y0145517D01*
X0190616Y0145644D02*
X0192689Y0144786D01*
X0194275Y0143200D01*
X0195133Y0141127D01*
X0195133Y0138884D01*
X0194275Y0136812D01*
X0192689Y0135226D01*
X0190616Y0134367D01*
X0180696Y0134367D01*
X0178624Y0135226D01*
X0177037Y0136812D01*
X0176179Y0138884D01*
X0176179Y0141127D01*
X0177037Y0143200D01*
X0178624Y0144786D01*
X0180696Y0145644D01*
X0190616Y0145644D01*
X0191886Y0145118D02*
X0199572Y0145118D01*
X0199572Y0144720D02*
X0192755Y0144720D01*
X0193153Y0144321D02*
X0199572Y0144321D01*
X0199572Y0143923D02*
X0193552Y0143923D01*
X0193950Y0143524D02*
X0199572Y0143524D01*
X0199572Y0143126D02*
X0194306Y0143126D01*
X0194471Y0142727D02*
X0199572Y0142727D01*
X0199572Y0142329D02*
X0194636Y0142329D01*
X0194801Y0141930D02*
X0199572Y0141930D01*
X0199572Y0141532D02*
X0194966Y0141532D01*
X0195131Y0141133D02*
X0199572Y0141133D01*
X0199572Y0140735D02*
X0195133Y0140735D01*
X0195133Y0140336D02*
X0199572Y0140336D01*
X0199572Y0139938D02*
X0195133Y0139938D01*
X0195133Y0139539D02*
X0199572Y0139539D01*
X0199572Y0139141D02*
X0195133Y0139141D01*
X0195074Y0138742D02*
X0199572Y0138742D01*
X0199572Y0138344D02*
X0194909Y0138344D01*
X0194744Y0137945D02*
X0199572Y0137945D01*
X0199572Y0137547D02*
X0194579Y0137547D01*
X0194414Y0137148D02*
X0199572Y0137148D01*
X0199572Y0136750D02*
X0194213Y0136750D01*
X0193814Y0136351D02*
X0199572Y0136351D01*
X0199572Y0135953D02*
X0193416Y0135953D01*
X0193017Y0135554D02*
X0199572Y0135554D01*
X0199572Y0135156D02*
X0192520Y0135156D01*
X0191558Y0134757D02*
X0199572Y0134757D01*
X0199572Y0134359D02*
X0026406Y0134359D01*
X0026406Y0134757D02*
X0179755Y0134757D01*
X0178793Y0135156D02*
X0026406Y0135156D01*
X0026406Y0135554D02*
X0178295Y0135554D01*
X0177897Y0135953D02*
X0026406Y0135953D01*
X0026406Y0136351D02*
X0177498Y0136351D01*
X0177100Y0136750D02*
X0026406Y0136750D01*
X0026406Y0137148D02*
X0176898Y0137148D01*
X0176733Y0137547D02*
X0026406Y0137547D01*
X0026406Y0137945D02*
X0176568Y0137945D01*
X0176403Y0138344D02*
X0026406Y0138344D01*
X0026406Y0138742D02*
X0176238Y0138742D01*
X0176179Y0139141D02*
X0026406Y0139141D01*
X0026406Y0139539D02*
X0176179Y0139539D01*
X0176179Y0139938D02*
X0026406Y0139938D01*
X0026406Y0140336D02*
X0176179Y0140336D01*
X0176179Y0140735D02*
X0026406Y0140735D01*
X0026406Y0141133D02*
X0176181Y0141133D01*
X0176347Y0141532D02*
X0026406Y0141532D01*
X0026406Y0141930D02*
X0176512Y0141930D01*
X0176677Y0142329D02*
X0026406Y0142329D01*
X0026406Y0142727D02*
X0176842Y0142727D01*
X0177007Y0143126D02*
X0026406Y0143126D01*
X0026406Y0143524D02*
X0177362Y0143524D01*
X0177760Y0143923D02*
X0026406Y0143923D01*
X0026406Y0144321D02*
X0178159Y0144321D01*
X0178557Y0144720D02*
X0026406Y0144720D01*
X0026406Y0145118D02*
X0179426Y0145118D01*
X0180388Y0145517D02*
X0026406Y0145517D01*
X0026406Y0133960D02*
X0199572Y0133960D01*
X0199572Y0133562D02*
X0026406Y0133562D01*
X0026406Y0133163D02*
X0199572Y0133163D01*
X0199572Y0132765D02*
X0026406Y0132765D01*
X0026406Y0132366D02*
X0199572Y0132366D01*
X0199572Y0131968D02*
X0026406Y0131968D01*
X0026406Y0131569D02*
X0199572Y0131569D01*
X0199572Y0131171D02*
X0026406Y0131171D01*
X0026406Y0130772D02*
X0199572Y0130772D01*
X0199572Y0130374D02*
X0026406Y0130374D01*
X0026406Y0129975D02*
X0199572Y0129975D01*
X0199572Y0129577D02*
X0026406Y0129577D01*
X0026406Y0129178D02*
X0199572Y0129178D01*
X0199572Y0128780D02*
X0026406Y0128780D01*
X0026406Y0128381D02*
X0199572Y0128381D01*
X0199572Y0127983D02*
X0026406Y0127983D01*
X0026406Y0127584D02*
X0199572Y0127584D01*
X0199572Y0127185D02*
X0026406Y0127185D01*
X0026406Y0126787D02*
X0199572Y0126787D01*
X0199572Y0126388D02*
X0026406Y0126388D01*
X0026406Y0125990D02*
X0199572Y0125990D01*
X0199572Y0125591D02*
X0190744Y0125591D01*
X0190616Y0125644D02*
X0192689Y0124786D01*
X0194275Y0123200D01*
X0195133Y0121127D01*
X0195133Y0118884D01*
X0194275Y0116812D01*
X0192689Y0115226D01*
X0190616Y0114367D01*
X0180696Y0114367D01*
X0178624Y0115226D01*
X0177037Y0116812D01*
X0176179Y0118884D01*
X0176179Y0121127D01*
X0177037Y0123200D01*
X0178624Y0124786D01*
X0180696Y0125644D01*
X0190616Y0125644D01*
X0191706Y0125193D02*
X0199572Y0125193D01*
X0199572Y0124794D02*
X0192669Y0124794D01*
X0193079Y0124396D02*
X0199572Y0124396D01*
X0199572Y0123997D02*
X0193477Y0123997D01*
X0193876Y0123599D02*
X0199572Y0123599D01*
X0199572Y0123200D02*
X0194274Y0123200D01*
X0194440Y0122802D02*
X0199572Y0122802D01*
X0199572Y0122403D02*
X0194605Y0122403D01*
X0194770Y0122005D02*
X0199572Y0122005D01*
X0199572Y0121606D02*
X0194935Y0121606D01*
X0195100Y0121208D02*
X0199572Y0121208D01*
X0199572Y0120809D02*
X0195133Y0120809D01*
X0195133Y0120411D02*
X0199572Y0120411D01*
X0199572Y0120012D02*
X0195133Y0120012D01*
X0195133Y0119614D02*
X0199572Y0119614D01*
X0199572Y0119215D02*
X0195133Y0119215D01*
X0195105Y0118817D02*
X0199572Y0118817D01*
X0199572Y0118418D02*
X0194940Y0118418D01*
X0194775Y0118020D02*
X0199572Y0118020D01*
X0199572Y0117621D02*
X0194610Y0117621D01*
X0194445Y0117223D02*
X0199572Y0117223D01*
X0199572Y0116824D02*
X0194280Y0116824D01*
X0193889Y0116426D02*
X0199572Y0116426D01*
X0199572Y0116027D02*
X0193490Y0116027D01*
X0193092Y0115629D02*
X0199572Y0115629D01*
X0199572Y0115230D02*
X0192693Y0115230D01*
X0191737Y0114832D02*
X0199572Y0114832D01*
X0199572Y0114433D02*
X0190775Y0114433D01*
X0190616Y0105644D02*
X0192689Y0104786D01*
X0194275Y0103200D01*
X0195133Y0101127D01*
X0195133Y0098884D01*
X0194275Y0096812D01*
X0192689Y0095226D01*
X0190616Y0094367D01*
X0180696Y0094367D01*
X0178624Y0095226D01*
X0177037Y0096812D01*
X0176179Y0098884D01*
X0176179Y0101127D01*
X0177037Y0103200D01*
X0178624Y0104786D01*
X0180696Y0105644D01*
X0190616Y0105644D01*
X0191527Y0105267D02*
X0199572Y0105267D01*
X0199572Y0104869D02*
X0192489Y0104869D01*
X0193004Y0104470D02*
X0199572Y0104470D01*
X0199572Y0104072D02*
X0193403Y0104072D01*
X0193801Y0103673D02*
X0199572Y0103673D01*
X0199572Y0103275D02*
X0194200Y0103275D01*
X0194409Y0102876D02*
X0199572Y0102876D01*
X0199572Y0102478D02*
X0194574Y0102478D01*
X0194739Y0102079D02*
X0199572Y0102079D01*
X0199572Y0101681D02*
X0194904Y0101681D01*
X0195069Y0101282D02*
X0199572Y0101282D01*
X0199572Y0100884D02*
X0195133Y0100884D01*
X0195133Y0100485D02*
X0199572Y0100485D01*
X0199572Y0100087D02*
X0195133Y0100087D01*
X0195133Y0099688D02*
X0199572Y0099688D01*
X0199572Y0099290D02*
X0195133Y0099290D01*
X0195133Y0098891D02*
X0199572Y0098891D01*
X0199572Y0098493D02*
X0194971Y0098493D01*
X0194806Y0098094D02*
X0199572Y0098094D01*
X0199572Y0097696D02*
X0194641Y0097696D01*
X0194476Y0097297D02*
X0199572Y0097297D01*
X0199572Y0096899D02*
X0194311Y0096899D01*
X0193963Y0096500D02*
X0199572Y0096500D01*
X0199572Y0096102D02*
X0193565Y0096102D01*
X0193166Y0095703D02*
X0199572Y0095703D01*
X0199572Y0095305D02*
X0192768Y0095305D01*
X0191917Y0094906D02*
X0199572Y0094906D01*
X0199572Y0094508D02*
X0190955Y0094508D01*
X0192735Y0087006D02*
X0178578Y0087006D01*
X0177406Y0085834D01*
X0176078Y0084506D01*
X0176078Y0084506D01*
X0174906Y0083334D01*
X0174906Y0056677D01*
X0176078Y0055506D01*
X0178578Y0053006D01*
X0192735Y0053006D01*
X0193906Y0054177D01*
X0196406Y0056677D01*
X0196406Y0083334D01*
X0195235Y0084506D01*
X0192735Y0087006D01*
X0192805Y0086936D02*
X0199572Y0086936D01*
X0199572Y0087334D02*
X0026406Y0087334D01*
X0026406Y0086936D02*
X0178508Y0086936D01*
X0178109Y0086537D02*
X0026406Y0086537D01*
X0026406Y0086139D02*
X0177711Y0086139D01*
X0177312Y0085740D02*
X0026406Y0085740D01*
X0026406Y0085342D02*
X0176914Y0085342D01*
X0176515Y0084943D02*
X0026406Y0084943D01*
X0026406Y0084545D02*
X0176117Y0084545D01*
X0175718Y0084146D02*
X0026406Y0084146D01*
X0026406Y0083748D02*
X0175320Y0083748D01*
X0174921Y0083349D02*
X0026406Y0083349D01*
X0026406Y0082951D02*
X0174906Y0082951D01*
X0174906Y0082552D02*
X0026406Y0082552D01*
X0026406Y0082154D02*
X0174906Y0082154D01*
X0174906Y0081755D02*
X0026406Y0081755D01*
X0026406Y0081357D02*
X0174906Y0081357D01*
X0174906Y0080958D02*
X0026406Y0080958D01*
X0026406Y0080560D02*
X0174906Y0080560D01*
X0174906Y0080161D02*
X0026406Y0080161D01*
X0026406Y0079763D02*
X0174906Y0079763D01*
X0174906Y0079364D02*
X0026406Y0079364D01*
X0026406Y0078966D02*
X0174906Y0078966D01*
X0174906Y0078567D02*
X0026406Y0078567D01*
X0026406Y0078169D02*
X0174906Y0078169D01*
X0174906Y0077770D02*
X0026406Y0077770D01*
X0026406Y0077372D02*
X0174906Y0077372D01*
X0174906Y0076973D02*
X0026406Y0076973D01*
X0026406Y0076575D02*
X0174906Y0076575D01*
X0174906Y0076176D02*
X0026406Y0076176D01*
X0026406Y0075778D02*
X0174906Y0075778D01*
X0174906Y0075379D02*
X0026406Y0075379D01*
X0026406Y0074980D02*
X0174906Y0074980D01*
X0174906Y0074582D02*
X0026406Y0074582D01*
X0026406Y0074183D02*
X0174906Y0074183D01*
X0174906Y0073785D02*
X0026406Y0073785D01*
X0026406Y0073386D02*
X0174906Y0073386D01*
X0174906Y0072988D02*
X0026406Y0072988D01*
X0026406Y0072589D02*
X0174906Y0072589D01*
X0174906Y0072191D02*
X0026406Y0072191D01*
X0026406Y0071792D02*
X0174906Y0071792D01*
X0174906Y0071394D02*
X0026406Y0071394D01*
X0026406Y0070995D02*
X0174906Y0070995D01*
X0174906Y0070597D02*
X0026406Y0070597D01*
X0026406Y0070198D02*
X0174906Y0070198D01*
X0174906Y0069800D02*
X0026406Y0069800D01*
X0026406Y0069401D02*
X0174906Y0069401D01*
X0174906Y0069003D02*
X0026406Y0069003D01*
X0026406Y0068604D02*
X0174906Y0068604D01*
X0174906Y0068206D02*
X0026406Y0068206D01*
X0026406Y0067807D02*
X0174906Y0067807D01*
X0174906Y0067409D02*
X0026406Y0067409D01*
X0026406Y0067010D02*
X0174906Y0067010D01*
X0174906Y0066612D02*
X0026406Y0066612D01*
X0026406Y0066213D02*
X0174906Y0066213D01*
X0174906Y0065815D02*
X0026406Y0065815D01*
X0026406Y0065416D02*
X0174906Y0065416D01*
X0174906Y0065018D02*
X0026406Y0065018D01*
X0026406Y0064619D02*
X0174906Y0064619D01*
X0174906Y0064221D02*
X0026406Y0064221D01*
X0026406Y0063822D02*
X0174906Y0063822D01*
X0174906Y0063424D02*
X0026406Y0063424D01*
X0026406Y0063025D02*
X0174906Y0063025D01*
X0174906Y0062627D02*
X0026406Y0062627D01*
X0026406Y0062228D02*
X0174906Y0062228D01*
X0174906Y0061830D02*
X0026406Y0061830D01*
X0026406Y0061431D02*
X0174906Y0061431D01*
X0174906Y0061033D02*
X0026406Y0061033D01*
X0026406Y0060634D02*
X0174906Y0060634D01*
X0174906Y0060236D02*
X0026406Y0060236D01*
X0026406Y0059837D02*
X0174906Y0059837D01*
X0174906Y0059439D02*
X0026406Y0059439D01*
X0026406Y0059040D02*
X0174906Y0059040D01*
X0174906Y0058642D02*
X0026406Y0058642D01*
X0026406Y0058243D02*
X0174906Y0058243D01*
X0174906Y0057845D02*
X0026406Y0057845D01*
X0026406Y0057446D02*
X0174906Y0057446D01*
X0174906Y0057047D02*
X0026406Y0057047D01*
X0026406Y0056649D02*
X0174935Y0056649D01*
X0175333Y0056250D02*
X0026406Y0056250D01*
X0026406Y0055852D02*
X0175732Y0055852D01*
X0176130Y0055453D02*
X0026406Y0055453D01*
X0026406Y0055055D02*
X0176529Y0055055D01*
X0176927Y0054656D02*
X0026406Y0054656D01*
X0026406Y0054258D02*
X0177326Y0054258D01*
X0177724Y0053859D02*
X0026406Y0053859D01*
X0026406Y0053461D02*
X0178123Y0053461D01*
X0178521Y0053062D02*
X0026406Y0053062D01*
X0026406Y0052664D02*
X0199572Y0052664D01*
X0199572Y0053062D02*
X0192791Y0053062D01*
X0193190Y0053461D02*
X0199572Y0053461D01*
X0199572Y0053859D02*
X0193588Y0053859D01*
X0193987Y0054258D02*
X0199572Y0054258D01*
X0199572Y0054656D02*
X0194385Y0054656D01*
X0194784Y0055055D02*
X0199572Y0055055D01*
X0199572Y0055453D02*
X0195182Y0055453D01*
X0195581Y0055852D02*
X0199572Y0055852D01*
X0199572Y0056250D02*
X0195979Y0056250D01*
X0196378Y0056649D02*
X0199572Y0056649D01*
X0199572Y0057047D02*
X0196406Y0057047D01*
X0196406Y0057446D02*
X0199572Y0057446D01*
X0199572Y0057845D02*
X0196406Y0057845D01*
X0196406Y0058243D02*
X0199572Y0058243D01*
X0199572Y0058642D02*
X0196406Y0058642D01*
X0196406Y0059040D02*
X0199572Y0059040D01*
X0199572Y0059439D02*
X0196406Y0059439D01*
X0196406Y0059837D02*
X0199572Y0059837D01*
X0199572Y0060236D02*
X0196406Y0060236D01*
X0196406Y0060634D02*
X0199572Y0060634D01*
X0199572Y0061033D02*
X0196406Y0061033D01*
X0196406Y0061431D02*
X0199572Y0061431D01*
X0199572Y0061830D02*
X0196406Y0061830D01*
X0196406Y0062228D02*
X0199572Y0062228D01*
X0199572Y0062627D02*
X0196406Y0062627D01*
X0196406Y0063025D02*
X0199572Y0063025D01*
X0199572Y0063424D02*
X0196406Y0063424D01*
X0196406Y0063822D02*
X0199572Y0063822D01*
X0199572Y0064221D02*
X0196406Y0064221D01*
X0196406Y0064619D02*
X0199572Y0064619D01*
X0199572Y0065018D02*
X0196406Y0065018D01*
X0196406Y0065416D02*
X0199572Y0065416D01*
X0199572Y0065815D02*
X0196406Y0065815D01*
X0196406Y0066213D02*
X0199572Y0066213D01*
X0199572Y0066612D02*
X0196406Y0066612D01*
X0196406Y0067010D02*
X0199572Y0067010D01*
X0199572Y0067409D02*
X0196406Y0067409D01*
X0196406Y0067807D02*
X0199572Y0067807D01*
X0199572Y0068206D02*
X0196406Y0068206D01*
X0196406Y0068604D02*
X0199572Y0068604D01*
X0199572Y0069003D02*
X0196406Y0069003D01*
X0196406Y0069401D02*
X0199572Y0069401D01*
X0199572Y0069800D02*
X0196406Y0069800D01*
X0196406Y0070198D02*
X0199572Y0070198D01*
X0199572Y0070597D02*
X0196406Y0070597D01*
X0196406Y0070995D02*
X0199572Y0070995D01*
X0199572Y0071394D02*
X0196406Y0071394D01*
X0196406Y0071792D02*
X0199572Y0071792D01*
X0199572Y0072191D02*
X0196406Y0072191D01*
X0196406Y0072589D02*
X0199572Y0072589D01*
X0199572Y0072988D02*
X0196406Y0072988D01*
X0196406Y0073386D02*
X0199572Y0073386D01*
X0199572Y0073785D02*
X0196406Y0073785D01*
X0196406Y0074183D02*
X0199572Y0074183D01*
X0199572Y0074582D02*
X0196406Y0074582D01*
X0196406Y0074980D02*
X0199572Y0074980D01*
X0199572Y0075379D02*
X0196406Y0075379D01*
X0196406Y0075778D02*
X0199572Y0075778D01*
X0199572Y0076176D02*
X0196406Y0076176D01*
X0196406Y0076575D02*
X0199572Y0076575D01*
X0199572Y0076973D02*
X0196406Y0076973D01*
X0196406Y0077372D02*
X0199572Y0077372D01*
X0199572Y0077770D02*
X0196406Y0077770D01*
X0196406Y0078169D02*
X0199572Y0078169D01*
X0199572Y0078567D02*
X0196406Y0078567D01*
X0196406Y0078966D02*
X0199572Y0078966D01*
X0199572Y0079364D02*
X0196406Y0079364D01*
X0196406Y0079763D02*
X0199572Y0079763D01*
X0199572Y0080161D02*
X0196406Y0080161D01*
X0196406Y0080560D02*
X0199572Y0080560D01*
X0199572Y0080958D02*
X0196406Y0080958D01*
X0196406Y0081357D02*
X0199572Y0081357D01*
X0199572Y0081755D02*
X0196406Y0081755D01*
X0196406Y0082154D02*
X0199572Y0082154D01*
X0199572Y0082552D02*
X0196406Y0082552D01*
X0196406Y0082951D02*
X0199572Y0082951D01*
X0199572Y0083349D02*
X0196391Y0083349D01*
X0195993Y0083748D02*
X0199572Y0083748D01*
X0199572Y0084146D02*
X0195594Y0084146D01*
X0195196Y0084545D02*
X0199572Y0084545D01*
X0199572Y0084943D02*
X0194797Y0084943D01*
X0194399Y0085342D02*
X0199572Y0085342D01*
X0199572Y0085740D02*
X0194000Y0085740D01*
X0193602Y0086139D02*
X0199572Y0086139D01*
X0199572Y0086537D02*
X0193203Y0086537D01*
X0191906Y0085006D02*
X0194406Y0082506D01*
X0194406Y0057506D01*
X0191906Y0055006D01*
X0179406Y0055006D01*
X0176906Y0057506D01*
X0176906Y0082506D01*
X0179406Y0085006D01*
X0191906Y0085006D01*
X0191969Y0084943D02*
X0179344Y0084943D01*
X0178945Y0084545D02*
X0192367Y0084545D01*
X0192766Y0084146D02*
X0178547Y0084146D01*
X0178148Y0083748D02*
X0193164Y0083748D01*
X0193563Y0083349D02*
X0177749Y0083349D01*
X0177351Y0082951D02*
X0193961Y0082951D01*
X0194360Y0082552D02*
X0176952Y0082552D01*
X0176906Y0082154D02*
X0194406Y0082154D01*
X0194406Y0081755D02*
X0176906Y0081755D01*
X0176906Y0081357D02*
X0194406Y0081357D01*
X0194406Y0080958D02*
X0176906Y0080958D01*
X0176906Y0080560D02*
X0194406Y0080560D01*
X0194406Y0080161D02*
X0176906Y0080161D01*
X0176906Y0079763D02*
X0194406Y0079763D01*
X0194406Y0079364D02*
X0176906Y0079364D01*
X0176906Y0078966D02*
X0194406Y0078966D01*
X0194406Y0078567D02*
X0176906Y0078567D01*
X0176906Y0078169D02*
X0194406Y0078169D01*
X0194406Y0077770D02*
X0176906Y0077770D01*
X0176906Y0077372D02*
X0194406Y0077372D01*
X0194406Y0076973D02*
X0176906Y0076973D01*
X0176906Y0076575D02*
X0194406Y0076575D01*
X0194406Y0076176D02*
X0176906Y0076176D01*
X0176906Y0075778D02*
X0194406Y0075778D01*
X0194406Y0075379D02*
X0176906Y0075379D01*
X0176906Y0074980D02*
X0194406Y0074980D01*
X0194406Y0074582D02*
X0176906Y0074582D01*
X0176906Y0074183D02*
X0194406Y0074183D01*
X0194406Y0073785D02*
X0176906Y0073785D01*
X0176906Y0073386D02*
X0194406Y0073386D01*
X0194406Y0072988D02*
X0176906Y0072988D01*
X0176906Y0072589D02*
X0194406Y0072589D01*
X0194406Y0072191D02*
X0176906Y0072191D01*
X0176906Y0071792D02*
X0194406Y0071792D01*
X0194406Y0071394D02*
X0176906Y0071394D01*
X0176906Y0070995D02*
X0194406Y0070995D01*
X0194406Y0070597D02*
X0176906Y0070597D01*
X0176906Y0070198D02*
X0194406Y0070198D01*
X0194406Y0069800D02*
X0176906Y0069800D01*
X0176906Y0069401D02*
X0194406Y0069401D01*
X0194406Y0069003D02*
X0176906Y0069003D01*
X0176906Y0068604D02*
X0194406Y0068604D01*
X0194406Y0068206D02*
X0176906Y0068206D01*
X0176906Y0067807D02*
X0194406Y0067807D01*
X0194406Y0067409D02*
X0176906Y0067409D01*
X0176906Y0067010D02*
X0194406Y0067010D01*
X0194406Y0066612D02*
X0176906Y0066612D01*
X0176906Y0066213D02*
X0194406Y0066213D01*
X0194406Y0065815D02*
X0176906Y0065815D01*
X0176906Y0065416D02*
X0194406Y0065416D01*
X0194406Y0065018D02*
X0176906Y0065018D01*
X0176906Y0064619D02*
X0194406Y0064619D01*
X0194406Y0064221D02*
X0176906Y0064221D01*
X0176906Y0063822D02*
X0194406Y0063822D01*
X0194406Y0063424D02*
X0176906Y0063424D01*
X0176906Y0063025D02*
X0194406Y0063025D01*
X0194406Y0062627D02*
X0176906Y0062627D01*
X0176906Y0062228D02*
X0194406Y0062228D01*
X0194406Y0061830D02*
X0176906Y0061830D01*
X0176906Y0061431D02*
X0194406Y0061431D01*
X0194406Y0061033D02*
X0176906Y0061033D01*
X0176906Y0060634D02*
X0194406Y0060634D01*
X0194406Y0060236D02*
X0176906Y0060236D01*
X0176906Y0059837D02*
X0194406Y0059837D01*
X0194406Y0059439D02*
X0176906Y0059439D01*
X0176906Y0059040D02*
X0194406Y0059040D01*
X0194406Y0058642D02*
X0176906Y0058642D01*
X0176906Y0058243D02*
X0194406Y0058243D01*
X0194406Y0057845D02*
X0176906Y0057845D01*
X0176966Y0057446D02*
X0194346Y0057446D01*
X0193948Y0057047D02*
X0177365Y0057047D01*
X0177763Y0056649D02*
X0193549Y0056649D01*
X0193151Y0056250D02*
X0178162Y0056250D01*
X0178560Y0055852D02*
X0192752Y0055852D01*
X0192354Y0055453D02*
X0178959Y0055453D01*
X0179357Y0055055D02*
X0191955Y0055055D01*
X0199572Y0052265D02*
X0026406Y0052265D01*
X0026406Y0051867D02*
X0199572Y0051867D01*
X0199572Y0051468D02*
X0026406Y0051468D01*
X0026406Y0051070D02*
X0199572Y0051070D01*
X0199572Y0050671D02*
X0026406Y0050671D01*
X0026406Y0050273D02*
X0199572Y0050273D01*
X0199572Y0049874D02*
X0026406Y0049874D01*
X0026406Y0049476D02*
X0199572Y0049476D01*
X0199572Y0049077D02*
X0026406Y0049077D01*
X0026406Y0048679D02*
X0199572Y0048679D01*
X0199572Y0048280D02*
X0026406Y0048280D01*
X0026406Y0047882D02*
X0199572Y0047882D01*
X0199572Y0047483D02*
X0026406Y0047483D01*
X0026406Y0047085D02*
X0199572Y0047085D01*
X0199572Y0046686D02*
X0026406Y0046686D01*
X0026406Y0046288D02*
X0199572Y0046288D01*
X0199572Y0045889D02*
X0026406Y0045889D01*
X0026406Y0045491D02*
X0199572Y0045491D01*
X0199572Y0045092D02*
X0026406Y0045092D01*
X0026406Y0044694D02*
X0199572Y0044694D01*
X0199572Y0044295D02*
X0026406Y0044295D01*
X0026406Y0043897D02*
X0199572Y0043897D01*
X0199572Y0043498D02*
X0026406Y0043498D01*
X0026406Y0043100D02*
X0199572Y0043100D01*
X0199572Y0042701D02*
X0026406Y0042701D01*
X0026406Y0042303D02*
X0199572Y0042303D01*
X0199572Y0041904D02*
X0026406Y0041904D01*
X0026406Y0041506D02*
X0199572Y0041506D01*
X0199572Y0041107D02*
X0026406Y0041107D01*
X0026406Y0040709D02*
X0199572Y0040709D01*
X0199572Y0040310D02*
X0026406Y0040310D01*
X0026406Y0039912D02*
X0199572Y0039912D01*
X0199572Y0039513D02*
X0026406Y0039513D01*
X0026406Y0039114D02*
X0199572Y0039114D01*
X0199572Y0038716D02*
X0026406Y0038716D01*
X0026406Y0038317D02*
X0199572Y0038317D01*
X0199572Y0037919D02*
X0026406Y0037919D01*
X0026406Y0037520D02*
X0199572Y0037520D01*
X0199572Y0037122D02*
X0026406Y0037122D01*
X0026406Y0036723D02*
X0199572Y0036723D01*
X0199572Y0036325D02*
X0026406Y0036325D01*
X0026406Y0035926D02*
X0199572Y0035926D01*
X0199572Y0035528D02*
X0026406Y0035528D01*
X0026406Y0035129D02*
X0199572Y0035129D01*
X0199572Y0034731D02*
X0026406Y0034731D01*
X0026406Y0034332D02*
X0199572Y0034332D01*
X0199572Y0033934D02*
X0026406Y0033934D01*
X0026406Y0033535D02*
X0199572Y0033535D01*
X0199572Y0033137D02*
X0026406Y0033137D01*
X0026406Y0032738D02*
X0199572Y0032738D01*
X0199572Y0032340D02*
X0026406Y0032340D01*
X0026406Y0031941D02*
X0199572Y0031941D01*
X0199572Y0031543D02*
X0026406Y0031543D01*
X0026406Y0031144D02*
X0199572Y0031144D01*
X0199572Y0030746D02*
X0026406Y0030746D01*
X0026406Y0030347D02*
X0199572Y0030347D01*
X0199572Y0029949D02*
X0026406Y0029949D01*
X0026406Y0029550D02*
X0199572Y0029550D01*
X0199572Y0029152D02*
X0026406Y0029152D01*
X0026406Y0028753D02*
X0199572Y0028753D01*
X0199572Y0028355D02*
X0026406Y0028355D01*
X0026406Y0027956D02*
X0199572Y0027956D01*
X0199572Y0027558D02*
X0026406Y0027558D01*
X0026406Y0027159D02*
X0199572Y0027159D01*
X0199572Y0026761D02*
X0026406Y0026761D01*
X0026406Y0026362D02*
X0199572Y0026362D01*
X0199572Y0025964D02*
X0026406Y0025964D01*
X0026406Y0025565D02*
X0199572Y0025565D01*
X0199572Y0025167D02*
X0026406Y0025167D01*
X0026406Y0024768D02*
X0199572Y0024768D01*
X0199572Y0024370D02*
X0026406Y0024370D01*
X0026406Y0023971D02*
X0199572Y0023971D01*
X0199572Y0023573D02*
X0026406Y0023573D01*
X0026406Y0023174D02*
X0199572Y0023174D01*
X0199572Y0022776D02*
X0026406Y0022776D01*
X0026406Y0022377D02*
X0199572Y0022377D01*
X0199572Y0021978D02*
X0026406Y0021978D01*
X0026406Y0021580D02*
X0199572Y0021580D01*
X0199572Y0021181D02*
X0026406Y0021181D01*
X0026406Y0020783D02*
X0199572Y0020783D01*
X0199572Y0020384D02*
X0026406Y0020384D01*
X0026406Y0019986D02*
X0199572Y0019986D01*
X0199572Y0019587D02*
X0026406Y0019587D01*
X0026406Y0019189D02*
X0199572Y0019189D01*
X0199572Y0018790D02*
X0026406Y0018790D01*
X0026406Y0018392D02*
X0199572Y0018392D01*
X0199572Y0017993D02*
X0026406Y0017993D01*
X0026406Y0017595D02*
X0199572Y0017595D01*
X0199572Y0017196D02*
X0026406Y0017196D01*
X0026406Y0016798D02*
X0199572Y0016798D01*
X0199572Y0016399D02*
X0026406Y0016399D01*
X0026406Y0016001D02*
X0199572Y0016001D01*
X0199572Y0015602D02*
X0026406Y0015602D01*
X0026406Y0015204D02*
X0199572Y0015204D01*
X0199572Y0014805D02*
X0026406Y0014805D01*
X0026406Y0014407D02*
X0199572Y0014407D01*
X0199572Y0014008D02*
X0026406Y0014008D01*
X0026406Y0013610D02*
X0199572Y0013610D01*
X0199572Y0013211D02*
X0026406Y0013211D01*
X0026406Y0012813D02*
X0199572Y0012813D01*
X0199572Y0012414D02*
X0026406Y0012414D01*
X0026406Y0012016D02*
X0199572Y0012016D01*
X0199572Y0011617D02*
X0026406Y0011617D01*
X0026406Y0011219D02*
X0199572Y0011219D01*
X0199572Y0010820D02*
X0026406Y0010820D01*
X0026406Y0010422D02*
X0199572Y0010422D01*
X0199572Y0010023D02*
X0026406Y0010023D01*
X0026406Y0009625D02*
X0199572Y0009625D01*
X0199572Y0009226D02*
X0026406Y0009226D01*
X0026430Y0008828D02*
X0199548Y0008828D01*
X0199516Y0008429D02*
X0026461Y0008429D01*
X0026537Y0008031D02*
X0199441Y0008031D01*
X0199311Y0007632D02*
X0026667Y0007632D01*
X0026796Y0007234D02*
X0199182Y0007234D01*
X0199052Y0006835D02*
X0026926Y0006835D01*
X0027066Y0006437D02*
X0198912Y0006437D01*
X0198622Y0006038D02*
X0027355Y0006038D01*
X0027645Y0005640D02*
X0198333Y0005640D01*
X0198043Y0005241D02*
X0027934Y0005241D01*
X0028311Y0004843D02*
X0197667Y0004843D01*
X0197118Y0004444D02*
X0028859Y0004444D01*
X0029408Y0004045D02*
X0196570Y0004045D01*
X0195597Y0003647D02*
X0030380Y0003647D01*
X0032280Y0001256D02*
X0193698Y0001256D01*
X0193888Y0001258D01*
X0194078Y0001265D01*
X0194268Y0001277D01*
X0194458Y0001293D01*
X0194647Y0001313D01*
X0194836Y0001339D01*
X0195024Y0001368D01*
X0195211Y0001403D01*
X0195397Y0001442D01*
X0195582Y0001485D01*
X0195767Y0001533D01*
X0195950Y0001585D01*
X0196131Y0001641D01*
X0196311Y0001702D01*
X0196490Y0001768D01*
X0196667Y0001837D01*
X0196843Y0001911D01*
X0197016Y0001989D01*
X0197188Y0002072D01*
X0197357Y0002158D01*
X0197525Y0002248D01*
X0197690Y0002343D01*
X0197853Y0002441D01*
X0198013Y0002544D01*
X0198171Y0002650D01*
X0198326Y0002760D01*
X0198479Y0002873D01*
X0198629Y0002991D01*
X0198775Y0003112D01*
X0198919Y0003236D01*
X0199060Y0003364D01*
X0199198Y0003495D01*
X0199333Y0003630D01*
X0199464Y0003768D01*
X0199592Y0003909D01*
X0199716Y0004053D01*
X0199837Y0004199D01*
X0199955Y0004349D01*
X0200068Y0004502D01*
X0200178Y0004657D01*
X0200284Y0004815D01*
X0200387Y0004975D01*
X0200485Y0005138D01*
X0200580Y0005303D01*
X0200670Y0005471D01*
X0200756Y0005640D01*
X0200839Y0005812D01*
X0200917Y0005985D01*
X0200991Y0006161D01*
X0201060Y0006338D01*
X0201126Y0006517D01*
X0201187Y0006697D01*
X0201243Y0006878D01*
X0201295Y0007061D01*
X0201343Y0007246D01*
X0201386Y0007431D01*
X0201425Y0007617D01*
X0201460Y0007804D01*
X0201489Y0007992D01*
X0201515Y0008181D01*
X0201535Y0008370D01*
X0201551Y0008560D01*
X0201563Y0008750D01*
X0201570Y0008940D01*
X0201572Y0009130D01*
X0201572Y0170547D01*
X0199566Y0170623D02*
X0107925Y0170623D01*
X0107925Y0170225D02*
X0199572Y0170225D01*
X0199572Y0169826D02*
X0107925Y0169826D01*
X0107925Y0169428D02*
X0199572Y0169428D01*
X0199572Y0169029D02*
X0107925Y0169029D01*
X0107925Y0168631D02*
X0199572Y0168631D01*
X0199572Y0168232D02*
X0107925Y0168232D01*
X0107925Y0167834D02*
X0199572Y0167834D01*
X0199572Y0167435D02*
X0107925Y0167435D01*
X0107799Y0167037D02*
X0199572Y0167037D01*
X0199572Y0166638D02*
X0107634Y0166638D01*
X0107469Y0166240D02*
X0199572Y0166240D01*
X0199572Y0165841D02*
X0107304Y0165841D01*
X0107055Y0165443D02*
X0199572Y0165443D01*
X0199572Y0165044D02*
X0106656Y0165044D01*
X0106258Y0164646D02*
X0199572Y0164646D01*
X0199572Y0164247D02*
X0105859Y0164247D01*
X0104900Y0163849D02*
X0199572Y0163849D01*
X0199534Y0171022D02*
X0107925Y0171022D01*
X0107925Y0171420D02*
X0199503Y0171420D01*
X0199385Y0171819D02*
X0107925Y0171819D01*
X0107925Y0172217D02*
X0199255Y0172217D01*
X0199126Y0172616D02*
X0107925Y0172616D01*
X0107925Y0173014D02*
X0198996Y0173014D01*
X0198787Y0173413D02*
X0107925Y0173413D01*
X0107925Y0173811D02*
X0198497Y0173811D01*
X0198208Y0174210D02*
X0107925Y0174210D01*
X0107925Y0174608D02*
X0197918Y0174608D01*
X0197430Y0175007D02*
X0107925Y0175007D01*
X0107828Y0175405D02*
X0196881Y0175405D01*
X0196294Y0175804D02*
X0107663Y0175804D01*
X0107498Y0176202D02*
X0195067Y0176202D01*
X0193698Y0178421D02*
X0032280Y0178421D01*
X0030910Y0176202D02*
X0058814Y0176202D01*
X0058649Y0175804D02*
X0029684Y0175804D01*
X0029096Y0175405D02*
X0058484Y0175405D01*
X0058388Y0175007D02*
X0028548Y0175007D01*
X0028059Y0174608D02*
X0058388Y0174608D01*
X0058388Y0174210D02*
X0027770Y0174210D01*
X0027480Y0173811D02*
X0058388Y0173811D01*
X0058388Y0173413D02*
X0027191Y0173413D01*
X0026981Y0173014D02*
X0058388Y0173014D01*
X0058388Y0172616D02*
X0026852Y0172616D01*
X0026723Y0172217D02*
X0058388Y0172217D01*
X0058388Y0171819D02*
X0026593Y0171819D01*
X0026475Y0171420D02*
X0058388Y0171420D01*
X0058388Y0171022D02*
X0026443Y0171022D01*
X0024406Y0170547D02*
X0024408Y0170737D01*
X0024415Y0170927D01*
X0024427Y0171117D01*
X0024443Y0171307D01*
X0024463Y0171496D01*
X0024489Y0171685D01*
X0024518Y0171873D01*
X0024553Y0172060D01*
X0024592Y0172246D01*
X0024635Y0172431D01*
X0024683Y0172616D01*
X0024735Y0172799D01*
X0024791Y0172980D01*
X0024852Y0173160D01*
X0024918Y0173339D01*
X0024987Y0173516D01*
X0025061Y0173692D01*
X0025139Y0173865D01*
X0025222Y0174037D01*
X0025308Y0174206D01*
X0025398Y0174374D01*
X0025493Y0174539D01*
X0025591Y0174702D01*
X0025694Y0174862D01*
X0025800Y0175020D01*
X0025910Y0175175D01*
X0026023Y0175328D01*
X0026141Y0175478D01*
X0026262Y0175624D01*
X0026386Y0175768D01*
X0026514Y0175909D01*
X0026645Y0176047D01*
X0026780Y0176182D01*
X0026918Y0176313D01*
X0027059Y0176441D01*
X0027203Y0176565D01*
X0027349Y0176686D01*
X0027499Y0176804D01*
X0027652Y0176917D01*
X0027807Y0177027D01*
X0027965Y0177133D01*
X0028125Y0177236D01*
X0028288Y0177334D01*
X0028453Y0177429D01*
X0028621Y0177519D01*
X0028790Y0177605D01*
X0028962Y0177688D01*
X0029135Y0177766D01*
X0029311Y0177840D01*
X0029488Y0177909D01*
X0029667Y0177975D01*
X0029847Y0178036D01*
X0030028Y0178092D01*
X0030211Y0178144D01*
X0030396Y0178192D01*
X0030581Y0178235D01*
X0030767Y0178274D01*
X0030954Y0178309D01*
X0031142Y0178338D01*
X0031331Y0178364D01*
X0031520Y0178384D01*
X0031710Y0178400D01*
X0031900Y0178412D01*
X0032090Y0178419D01*
X0032280Y0178421D01*
X0064900Y0163849D02*
X0071412Y0163849D01*
X0070453Y0164247D02*
X0065859Y0164247D01*
X0066258Y0164646D02*
X0070054Y0164646D01*
X0069656Y0165044D02*
X0066656Y0165044D01*
X0067055Y0165443D02*
X0069257Y0165443D01*
X0069008Y0165841D02*
X0067304Y0165841D01*
X0067469Y0166240D02*
X0068843Y0166240D01*
X0068678Y0166638D02*
X0067634Y0166638D01*
X0067799Y0167037D02*
X0068513Y0167037D01*
X0068388Y0167435D02*
X0067925Y0167435D01*
X0067925Y0167834D02*
X0068388Y0167834D01*
X0068388Y0168232D02*
X0067925Y0168232D01*
X0067925Y0168631D02*
X0068388Y0168631D01*
X0068388Y0169029D02*
X0067925Y0169029D01*
X0067925Y0169428D02*
X0068388Y0169428D01*
X0068388Y0169826D02*
X0067925Y0169826D01*
X0067925Y0170225D02*
X0068388Y0170225D01*
X0068388Y0170623D02*
X0067925Y0170623D01*
X0067925Y0171022D02*
X0068388Y0171022D01*
X0068388Y0171420D02*
X0067925Y0171420D01*
X0067925Y0171819D02*
X0068388Y0171819D01*
X0068388Y0172217D02*
X0067925Y0172217D01*
X0067925Y0172616D02*
X0068388Y0172616D01*
X0068388Y0173014D02*
X0067925Y0173014D01*
X0067925Y0173413D02*
X0068388Y0173413D01*
X0068388Y0173811D02*
X0067925Y0173811D01*
X0067925Y0174210D02*
X0068388Y0174210D01*
X0068388Y0174608D02*
X0067925Y0174608D01*
X0067925Y0175007D02*
X0068388Y0175007D01*
X0068484Y0175405D02*
X0067828Y0175405D01*
X0067663Y0175804D02*
X0068649Y0175804D01*
X0068814Y0176202D02*
X0067498Y0176202D01*
X0077498Y0176202D02*
X0088814Y0176202D01*
X0088649Y0175804D02*
X0077663Y0175804D01*
X0077828Y0175405D02*
X0088484Y0175405D01*
X0088388Y0175007D02*
X0077925Y0175007D01*
X0077925Y0174608D02*
X0088388Y0174608D01*
X0088388Y0174210D02*
X0077925Y0174210D01*
X0077925Y0173811D02*
X0088388Y0173811D01*
X0088388Y0173413D02*
X0077925Y0173413D01*
X0077925Y0173014D02*
X0088388Y0173014D01*
X0088388Y0172616D02*
X0077925Y0172616D01*
X0077925Y0172217D02*
X0088388Y0172217D01*
X0088388Y0171819D02*
X0077925Y0171819D01*
X0077925Y0171420D02*
X0088388Y0171420D01*
X0088388Y0171022D02*
X0077925Y0171022D01*
X0077925Y0170623D02*
X0088388Y0170623D01*
X0088388Y0170225D02*
X0077925Y0170225D01*
X0077925Y0169826D02*
X0088388Y0169826D01*
X0088388Y0169428D02*
X0077925Y0169428D01*
X0077925Y0169029D02*
X0088388Y0169029D01*
X0088388Y0168631D02*
X0077925Y0168631D01*
X0077925Y0168232D02*
X0088388Y0168232D01*
X0088388Y0167834D02*
X0077925Y0167834D01*
X0077925Y0167435D02*
X0088388Y0167435D01*
X0088513Y0167037D02*
X0077799Y0167037D01*
X0077634Y0166638D02*
X0088678Y0166638D01*
X0088843Y0166240D02*
X0077469Y0166240D01*
X0077304Y0165841D02*
X0089008Y0165841D01*
X0089257Y0165443D02*
X0077055Y0165443D01*
X0076656Y0165044D02*
X0089656Y0165044D01*
X0090054Y0164646D02*
X0076258Y0164646D01*
X0075859Y0164247D02*
X0090453Y0164247D01*
X0091412Y0163849D02*
X0074900Y0163849D01*
X0094900Y0163849D02*
X0101412Y0163849D01*
X0100453Y0164247D02*
X0095859Y0164247D01*
X0096258Y0164646D02*
X0100054Y0164646D01*
X0099656Y0165044D02*
X0096656Y0165044D01*
X0097055Y0165443D02*
X0099257Y0165443D01*
X0099008Y0165841D02*
X0097304Y0165841D01*
X0097469Y0166240D02*
X0098843Y0166240D01*
X0098678Y0166638D02*
X0097634Y0166638D01*
X0097799Y0167037D02*
X0098513Y0167037D01*
X0098388Y0167435D02*
X0097925Y0167435D01*
X0097925Y0167834D02*
X0098388Y0167834D01*
X0098388Y0168232D02*
X0097925Y0168232D01*
X0097925Y0168631D02*
X0098388Y0168631D01*
X0098388Y0169029D02*
X0097925Y0169029D01*
X0097925Y0169428D02*
X0098388Y0169428D01*
X0098388Y0169826D02*
X0097925Y0169826D01*
X0097925Y0170225D02*
X0098388Y0170225D01*
X0098388Y0170623D02*
X0097925Y0170623D01*
X0097925Y0171022D02*
X0098388Y0171022D01*
X0098388Y0171420D02*
X0097925Y0171420D01*
X0097925Y0171819D02*
X0098388Y0171819D01*
X0098388Y0172217D02*
X0097925Y0172217D01*
X0097925Y0172616D02*
X0098388Y0172616D01*
X0098388Y0173014D02*
X0097925Y0173014D01*
X0097925Y0173413D02*
X0098388Y0173413D01*
X0098388Y0173811D02*
X0097925Y0173811D01*
X0097925Y0174210D02*
X0098388Y0174210D01*
X0098388Y0174608D02*
X0097925Y0174608D01*
X0097925Y0175007D02*
X0098388Y0175007D01*
X0098484Y0175405D02*
X0097828Y0175405D01*
X0097663Y0175804D02*
X0098649Y0175804D01*
X0098814Y0176202D02*
X0097498Y0176202D01*
X0026406Y0125591D02*
X0180568Y0125591D01*
X0179606Y0125193D02*
X0026406Y0125193D01*
X0026406Y0124794D02*
X0178644Y0124794D01*
X0178233Y0124396D02*
X0026406Y0124396D01*
X0026406Y0123997D02*
X0177835Y0123997D01*
X0177436Y0123599D02*
X0026406Y0123599D01*
X0026406Y0123200D02*
X0177038Y0123200D01*
X0176873Y0122802D02*
X0026406Y0122802D01*
X0026406Y0122403D02*
X0176707Y0122403D01*
X0176542Y0122005D02*
X0026406Y0122005D01*
X0026406Y0121606D02*
X0176377Y0121606D01*
X0176212Y0121208D02*
X0026406Y0121208D01*
X0026406Y0120809D02*
X0176179Y0120809D01*
X0176179Y0120411D02*
X0026406Y0120411D01*
X0026406Y0120012D02*
X0176179Y0120012D01*
X0176179Y0119614D02*
X0026406Y0119614D01*
X0026406Y0119215D02*
X0176179Y0119215D01*
X0176207Y0118817D02*
X0026406Y0118817D01*
X0026406Y0118418D02*
X0176372Y0118418D01*
X0176537Y0118020D02*
X0026406Y0118020D01*
X0026406Y0117621D02*
X0176702Y0117621D01*
X0176867Y0117223D02*
X0026406Y0117223D01*
X0026406Y0116824D02*
X0177032Y0116824D01*
X0177424Y0116426D02*
X0026406Y0116426D01*
X0026406Y0116027D02*
X0177822Y0116027D01*
X0178221Y0115629D02*
X0026406Y0115629D01*
X0026406Y0115230D02*
X0178619Y0115230D01*
X0179575Y0114832D02*
X0026406Y0114832D01*
X0026406Y0114433D02*
X0180537Y0114433D01*
X0179786Y0105267D02*
X0026406Y0105267D01*
X0026406Y0104869D02*
X0178823Y0104869D01*
X0178308Y0104470D02*
X0026406Y0104470D01*
X0026406Y0104072D02*
X0177909Y0104072D01*
X0177511Y0103673D02*
X0026406Y0103673D01*
X0026406Y0103275D02*
X0177112Y0103275D01*
X0176903Y0102876D02*
X0026406Y0102876D01*
X0026406Y0102478D02*
X0176738Y0102478D01*
X0176573Y0102079D02*
X0026406Y0102079D01*
X0026406Y0101681D02*
X0176408Y0101681D01*
X0176243Y0101282D02*
X0026406Y0101282D01*
X0026406Y0100884D02*
X0176179Y0100884D01*
X0176179Y0100485D02*
X0026406Y0100485D01*
X0026406Y0100087D02*
X0176179Y0100087D01*
X0176179Y0099688D02*
X0026406Y0099688D01*
X0026406Y0099290D02*
X0176179Y0099290D01*
X0176179Y0098891D02*
X0026406Y0098891D01*
X0026406Y0098493D02*
X0176341Y0098493D01*
X0176506Y0098094D02*
X0026406Y0098094D01*
X0026406Y0097696D02*
X0176671Y0097696D01*
X0176836Y0097297D02*
X0026406Y0097297D01*
X0026406Y0096899D02*
X0177001Y0096899D01*
X0177349Y0096500D02*
X0026406Y0096500D01*
X0026406Y0096102D02*
X0177748Y0096102D01*
X0178146Y0095703D02*
X0026406Y0095703D01*
X0026406Y0095305D02*
X0178545Y0095305D01*
X0179395Y0094906D02*
X0026406Y0094906D01*
X0026406Y0094508D02*
X0180357Y0094508D01*
X0199572Y0094109D02*
X0026406Y0094109D01*
X0026406Y0093711D02*
X0199572Y0093711D01*
X0199572Y0093312D02*
X0026406Y0093312D01*
X0026406Y0092914D02*
X0199572Y0092914D01*
X0199572Y0092515D02*
X0026406Y0092515D01*
X0026406Y0092116D02*
X0199572Y0092116D01*
X0199572Y0091718D02*
X0026406Y0091718D01*
X0026406Y0091319D02*
X0199572Y0091319D01*
X0199572Y0090921D02*
X0026406Y0090921D01*
X0026406Y0090522D02*
X0199572Y0090522D01*
X0199572Y0090124D02*
X0026406Y0090124D01*
X0026406Y0089725D02*
X0199572Y0089725D01*
X0199572Y0089327D02*
X0026406Y0089327D01*
X0026406Y0088928D02*
X0199572Y0088928D01*
X0199572Y0088530D02*
X0026406Y0088530D01*
X0026406Y0088131D02*
X0199572Y0088131D01*
X0199572Y0087733D02*
X0026406Y0087733D01*
X0026406Y0105666D02*
X0199572Y0105666D01*
X0199572Y0106064D02*
X0026406Y0106064D01*
X0026406Y0106463D02*
X0199572Y0106463D01*
X0199572Y0106861D02*
X0026406Y0106861D01*
X0026406Y0107260D02*
X0199572Y0107260D01*
X0199572Y0107658D02*
X0026406Y0107658D01*
X0026406Y0108057D02*
X0199572Y0108057D01*
X0199572Y0108455D02*
X0026406Y0108455D01*
X0026406Y0108854D02*
X0199572Y0108854D01*
X0199572Y0109252D02*
X0026406Y0109252D01*
X0026406Y0109651D02*
X0199572Y0109651D01*
X0199572Y0110049D02*
X0026406Y0110049D01*
X0026406Y0110448D02*
X0199572Y0110448D01*
X0199572Y0110847D02*
X0026406Y0110847D01*
X0026406Y0111245D02*
X0199572Y0111245D01*
X0199572Y0111644D02*
X0026406Y0111644D01*
X0026406Y0112042D02*
X0199572Y0112042D01*
X0199572Y0112441D02*
X0026406Y0112441D01*
X0026406Y0112839D02*
X0199572Y0112839D01*
X0199572Y0113238D02*
X0026406Y0113238D01*
X0026406Y0113636D02*
X0199572Y0113636D01*
X0199572Y0114035D02*
X0026406Y0114035D01*
X0024406Y0009130D02*
X0024408Y0008940D01*
X0024415Y0008750D01*
X0024427Y0008560D01*
X0024443Y0008370D01*
X0024463Y0008181D01*
X0024489Y0007992D01*
X0024518Y0007804D01*
X0024553Y0007617D01*
X0024592Y0007431D01*
X0024635Y0007246D01*
X0024683Y0007061D01*
X0024735Y0006878D01*
X0024791Y0006697D01*
X0024852Y0006517D01*
X0024918Y0006338D01*
X0024987Y0006161D01*
X0025061Y0005985D01*
X0025139Y0005812D01*
X0025222Y0005640D01*
X0025308Y0005471D01*
X0025398Y0005303D01*
X0025493Y0005138D01*
X0025591Y0004975D01*
X0025694Y0004815D01*
X0025800Y0004657D01*
X0025910Y0004502D01*
X0026023Y0004349D01*
X0026141Y0004199D01*
X0026262Y0004053D01*
X0026386Y0003909D01*
X0026514Y0003768D01*
X0026645Y0003630D01*
X0026780Y0003495D01*
X0026918Y0003364D01*
X0027059Y0003236D01*
X0027203Y0003112D01*
X0027349Y0002991D01*
X0027499Y0002873D01*
X0027652Y0002760D01*
X0027807Y0002650D01*
X0027965Y0002544D01*
X0028125Y0002441D01*
X0028288Y0002343D01*
X0028453Y0002248D01*
X0028621Y0002158D01*
X0028790Y0002072D01*
X0028962Y0001989D01*
X0029135Y0001911D01*
X0029311Y0001837D01*
X0029488Y0001768D01*
X0029667Y0001702D01*
X0029847Y0001641D01*
X0030028Y0001585D01*
X0030211Y0001533D01*
X0030396Y0001485D01*
X0030581Y0001442D01*
X0030767Y0001403D01*
X0030954Y0001368D01*
X0031142Y0001339D01*
X0031331Y0001313D01*
X0031520Y0001293D01*
X0031710Y0001277D01*
X0031900Y0001265D01*
X0032090Y0001258D01*
X0032280Y0001256D01*
X0201572Y0170547D02*
X0201570Y0170737D01*
X0201563Y0170927D01*
X0201551Y0171117D01*
X0201535Y0171307D01*
X0201515Y0171496D01*
X0201489Y0171685D01*
X0201460Y0171873D01*
X0201425Y0172060D01*
X0201386Y0172246D01*
X0201343Y0172431D01*
X0201295Y0172616D01*
X0201243Y0172799D01*
X0201187Y0172980D01*
X0201126Y0173160D01*
X0201060Y0173339D01*
X0200991Y0173516D01*
X0200917Y0173692D01*
X0200839Y0173865D01*
X0200756Y0174037D01*
X0200670Y0174206D01*
X0200580Y0174374D01*
X0200485Y0174539D01*
X0200387Y0174702D01*
X0200284Y0174862D01*
X0200178Y0175020D01*
X0200068Y0175175D01*
X0199955Y0175328D01*
X0199837Y0175478D01*
X0199716Y0175624D01*
X0199592Y0175768D01*
X0199464Y0175909D01*
X0199333Y0176047D01*
X0199198Y0176182D01*
X0199060Y0176313D01*
X0198919Y0176441D01*
X0198775Y0176565D01*
X0198629Y0176686D01*
X0198479Y0176804D01*
X0198326Y0176917D01*
X0198171Y0177027D01*
X0198013Y0177133D01*
X0197853Y0177236D01*
X0197690Y0177334D01*
X0197525Y0177429D01*
X0197357Y0177519D01*
X0197188Y0177605D01*
X0197016Y0177688D01*
X0196843Y0177766D01*
X0196667Y0177840D01*
X0196490Y0177909D01*
X0196311Y0177975D01*
X0196131Y0178036D01*
X0195950Y0178092D01*
X0195767Y0178144D01*
X0195582Y0178192D01*
X0195397Y0178235D01*
X0195211Y0178274D01*
X0195024Y0178309D01*
X0194836Y0178338D01*
X0194647Y0178364D01*
X0194458Y0178384D01*
X0194268Y0178400D01*
X0194078Y0178412D01*
X0193888Y0178419D01*
X0193698Y0178421D01*
D11*
X0103156Y0174224D02*
X0103156Y0168287D01*
X0093156Y0168287D02*
X0093156Y0174224D01*
X0083156Y0174224D02*
X0083156Y0168287D01*
X0073156Y0168287D02*
X0073156Y0174224D01*
X0063156Y0174224D02*
X0063156Y0168287D01*
D12*
X0181818Y0140006D02*
X0189495Y0140006D01*
X0189495Y0120006D02*
X0181818Y0120006D01*
X0181818Y0100006D02*
X0189495Y0100006D01*
X0189495Y0080006D02*
X0181818Y0080006D01*
X0181818Y0060006D02*
X0189495Y0060006D01*
X0189495Y0040006D02*
X0181818Y0040006D01*
D13*
X0187792Y0015035D03*
X0038186Y0015035D03*
X0038186Y0164642D03*
X0187792Y0164642D03*
D14*
X0116906Y0102506D03*
X0111906Y0102506D03*
X0111906Y0097506D03*
X0116906Y0097506D03*
X0116906Y0092506D03*
X0111906Y0092506D03*
X0106906Y0092506D03*
X0101906Y0092506D03*
X0096906Y0092506D03*
X0093156Y0097506D03*
X0088156Y0097506D03*
X0088156Y0102506D03*
X0093156Y0102506D03*
X0106906Y0097506D03*
X0076906Y0086256D03*
X0073156Y0086256D03*
X0063156Y0096256D03*
X0063156Y0100006D03*
X0058156Y0096256D03*
X0054406Y0096256D03*
X0050656Y0096256D03*
X0050656Y0100006D03*
X0054406Y0092506D03*
X0054406Y0082506D03*
X0054406Y0077506D03*
X0050656Y0115006D03*
X0110656Y0057506D03*
X0110656Y0052506D03*
X0110656Y0047506D03*
X0110656Y0042506D03*
X0118156Y0042506D03*
X0118156Y0047506D03*
X0118156Y0052506D03*
X0118156Y0057506D03*
X0133156Y0032506D03*
X0136906Y0032506D03*
X0140656Y0032506D03*
X0095656Y0032506D03*
X0091906Y0032506D03*
X0088156Y0032506D03*
M02*
