%
M48
M72
T01C0.0236
T02C0.0394
T03C0.0512
T04C0.1299
%
T01
X5066Y11501
X5066Y10001
X5066Y9626
X5441Y9626
X5816Y9626
X5441Y9251
X6316Y9626
X6316Y10001
X7316Y8626
X7691Y8626
X8816Y9751
X8816Y10251
X9316Y10251
X9316Y9751
X9691Y9251
X10191Y9251
X10691Y9251
X10691Y9751
X11191Y9751
X11191Y10251
X11691Y10251
X11691Y9751
X11691Y9251
X11191Y9251
X11066Y5751
X11066Y5251
X11066Y4751
X11066Y4251
X11816Y4251
X11816Y4751
X11816Y5251
X11816Y5751
X13316Y3251
X13691Y3251
X14066Y3251
X9566Y3251
X9191Y3251
X8816Y3251
X5441Y7751
X5441Y8251
T02
X6316Y17126
X7316Y17126
X8316Y17126
X9316Y17126
X10316Y17126
T03
X18566Y14001
X18566Y12001
X18566Y10001
X18566Y8001
X18566Y6001
X18566Y4001
T04
X3819Y16464
X18779Y16464
X18779Y1504
X3819Y1504
M30
