%
M48
M72
T01C0.0236
T02C0.0394
T03C0.0512
T04C0.1299
%
T01
X5066Y11501
X5066Y10001
X5066Y9501
X5441Y8251
X5441Y7751
X7066Y8626
X7441Y8626
X8316Y8376
X8691Y8751
X9066Y10001
X9066Y10501
X9566Y10501
X10066Y10501
X10066Y10001
X9566Y10001
X10566Y10001
X11066Y10001
X11566Y10001
X11566Y10501
X11566Y11001
X11566Y11501
X12066Y11501
X12066Y12001
X12066Y12501
X11566Y12501
X11566Y12001
X11566Y13001
X11566Y13501
X12066Y13501
X12066Y13001
X12066Y14001
X9066Y11876
X8691Y11501
X6566Y10251
X6566Y9751
X11066Y5001
X11066Y4501
X11066Y4001
X11816Y4001
X11816Y4501
X11816Y5001
X11816Y5501
X13316Y4751
X14066Y4751
X14066Y2876
X13316Y2876
X9566Y2876
X8816Y2876
X8816Y4751
X9566Y4751
X7066Y4501
X6566Y4501
X14316Y9251
X14316Y9751
T02
X6316Y17126
X7316Y17126
X8316Y17126
X9316Y17126
X10316Y17126
T03
X18566Y14001
X18566Y12001
X18566Y10001
X18566Y8001
X18566Y6001
X18566Y4001
T04
X3819Y16464
X18779Y16464
X18779Y1504
X3819Y1504
M30
