G75*
%MOIN*%
%OFA0B0*%
%FSLAX25Y25*%
%IPPOS*%
%LPD*%
%AMOC8*
5,1,8,0,0,1.08239X$1,22.5*
%
%ADD10C,0.00400*%
%ADD11R,0.04731X0.05518*%
%ADD12R,0.09849X0.09849*%
%ADD13R,0.07290X0.03156*%
%ADD14R,0.05518X0.02762*%
%ADD15R,0.07093X0.02959*%
%ADD16C,0.06337*%
%ADD17R,0.05518X0.05518*%
%ADD18R,0.08274X0.05518*%
%ADD19R,0.02369X0.02369*%
%ADD20R,0.02369X0.01975*%
%ADD21C,0.08077*%
%ADD22C,0.24022*%
D10*
X0024406Y0009130D02*
X0024406Y0170547D01*
X0024408Y0170737D01*
X0024415Y0170927D01*
X0024427Y0171117D01*
X0024443Y0171307D01*
X0024463Y0171496D01*
X0024489Y0171685D01*
X0024518Y0171873D01*
X0024553Y0172060D01*
X0024592Y0172246D01*
X0024635Y0172431D01*
X0024683Y0172616D01*
X0024735Y0172799D01*
X0024791Y0172980D01*
X0024852Y0173160D01*
X0024918Y0173339D01*
X0024987Y0173516D01*
X0025061Y0173692D01*
X0025139Y0173865D01*
X0025222Y0174037D01*
X0025308Y0174206D01*
X0025398Y0174374D01*
X0025493Y0174539D01*
X0025591Y0174702D01*
X0025694Y0174862D01*
X0025800Y0175020D01*
X0025910Y0175175D01*
X0026023Y0175328D01*
X0026141Y0175478D01*
X0026262Y0175624D01*
X0026386Y0175768D01*
X0026514Y0175909D01*
X0026645Y0176047D01*
X0026780Y0176182D01*
X0026918Y0176313D01*
X0027059Y0176441D01*
X0027203Y0176565D01*
X0027349Y0176686D01*
X0027499Y0176804D01*
X0027652Y0176917D01*
X0027807Y0177027D01*
X0027965Y0177133D01*
X0028125Y0177236D01*
X0028288Y0177334D01*
X0028453Y0177429D01*
X0028621Y0177519D01*
X0028790Y0177605D01*
X0028962Y0177688D01*
X0029135Y0177766D01*
X0029311Y0177840D01*
X0029488Y0177909D01*
X0029667Y0177975D01*
X0029847Y0178036D01*
X0030028Y0178092D01*
X0030211Y0178144D01*
X0030396Y0178192D01*
X0030581Y0178235D01*
X0030767Y0178274D01*
X0030954Y0178309D01*
X0031142Y0178338D01*
X0031331Y0178364D01*
X0031520Y0178384D01*
X0031710Y0178400D01*
X0031900Y0178412D01*
X0032090Y0178419D01*
X0032280Y0178421D01*
X0193698Y0178421D01*
X0193888Y0178419D01*
X0194078Y0178412D01*
X0194268Y0178400D01*
X0194458Y0178384D01*
X0194647Y0178364D01*
X0194836Y0178338D01*
X0195024Y0178309D01*
X0195211Y0178274D01*
X0195397Y0178235D01*
X0195582Y0178192D01*
X0195767Y0178144D01*
X0195950Y0178092D01*
X0196131Y0178036D01*
X0196311Y0177975D01*
X0196490Y0177909D01*
X0196667Y0177840D01*
X0196843Y0177766D01*
X0197016Y0177688D01*
X0197188Y0177605D01*
X0197357Y0177519D01*
X0197525Y0177429D01*
X0197690Y0177334D01*
X0197853Y0177236D01*
X0198013Y0177133D01*
X0198171Y0177027D01*
X0198326Y0176917D01*
X0198479Y0176804D01*
X0198629Y0176686D01*
X0198775Y0176565D01*
X0198919Y0176441D01*
X0199060Y0176313D01*
X0199198Y0176182D01*
X0199333Y0176047D01*
X0199464Y0175909D01*
X0199592Y0175768D01*
X0199716Y0175624D01*
X0199837Y0175478D01*
X0199955Y0175328D01*
X0200068Y0175175D01*
X0200178Y0175020D01*
X0200284Y0174862D01*
X0200387Y0174702D01*
X0200485Y0174539D01*
X0200580Y0174374D01*
X0200670Y0174206D01*
X0200756Y0174037D01*
X0200839Y0173865D01*
X0200917Y0173692D01*
X0200991Y0173516D01*
X0201060Y0173339D01*
X0201126Y0173160D01*
X0201187Y0172980D01*
X0201243Y0172799D01*
X0201295Y0172616D01*
X0201343Y0172431D01*
X0201386Y0172246D01*
X0201425Y0172060D01*
X0201460Y0171873D01*
X0201489Y0171685D01*
X0201515Y0171496D01*
X0201535Y0171307D01*
X0201551Y0171117D01*
X0201563Y0170927D01*
X0201570Y0170737D01*
X0201572Y0170547D01*
X0201572Y0009130D01*
X0201570Y0008940D01*
X0201563Y0008750D01*
X0201551Y0008560D01*
X0201535Y0008370D01*
X0201515Y0008181D01*
X0201489Y0007992D01*
X0201460Y0007804D01*
X0201425Y0007617D01*
X0201386Y0007431D01*
X0201343Y0007246D01*
X0201295Y0007061D01*
X0201243Y0006878D01*
X0201187Y0006697D01*
X0201126Y0006517D01*
X0201060Y0006338D01*
X0200991Y0006161D01*
X0200917Y0005985D01*
X0200839Y0005812D01*
X0200756Y0005640D01*
X0200670Y0005471D01*
X0200580Y0005303D01*
X0200485Y0005138D01*
X0200387Y0004975D01*
X0200284Y0004815D01*
X0200178Y0004657D01*
X0200068Y0004502D01*
X0199955Y0004349D01*
X0199837Y0004199D01*
X0199716Y0004053D01*
X0199592Y0003909D01*
X0199464Y0003768D01*
X0199333Y0003630D01*
X0199198Y0003495D01*
X0199060Y0003364D01*
X0198919Y0003236D01*
X0198775Y0003112D01*
X0198629Y0002991D01*
X0198479Y0002873D01*
X0198326Y0002760D01*
X0198171Y0002650D01*
X0198013Y0002544D01*
X0197853Y0002441D01*
X0197690Y0002343D01*
X0197525Y0002248D01*
X0197357Y0002158D01*
X0197188Y0002072D01*
X0197016Y0001989D01*
X0196843Y0001911D01*
X0196667Y0001837D01*
X0196490Y0001768D01*
X0196311Y0001702D01*
X0196131Y0001641D01*
X0195950Y0001585D01*
X0195767Y0001533D01*
X0195582Y0001485D01*
X0195397Y0001442D01*
X0195211Y0001403D01*
X0195024Y0001368D01*
X0194836Y0001339D01*
X0194647Y0001313D01*
X0194458Y0001293D01*
X0194268Y0001277D01*
X0194078Y0001265D01*
X0193888Y0001258D01*
X0193698Y0001256D01*
X0032280Y0001256D01*
X0032090Y0001258D01*
X0031900Y0001265D01*
X0031710Y0001277D01*
X0031520Y0001293D01*
X0031331Y0001313D01*
X0031142Y0001339D01*
X0030954Y0001368D01*
X0030767Y0001403D01*
X0030581Y0001442D01*
X0030396Y0001485D01*
X0030211Y0001533D01*
X0030028Y0001585D01*
X0029847Y0001641D01*
X0029667Y0001702D01*
X0029488Y0001768D01*
X0029311Y0001837D01*
X0029135Y0001911D01*
X0028962Y0001989D01*
X0028790Y0002072D01*
X0028621Y0002158D01*
X0028453Y0002248D01*
X0028288Y0002343D01*
X0028125Y0002441D01*
X0027965Y0002544D01*
X0027807Y0002650D01*
X0027652Y0002760D01*
X0027499Y0002873D01*
X0027349Y0002991D01*
X0027203Y0003112D01*
X0027059Y0003236D01*
X0026918Y0003364D01*
X0026780Y0003495D01*
X0026645Y0003630D01*
X0026514Y0003768D01*
X0026386Y0003909D01*
X0026262Y0004053D01*
X0026141Y0004199D01*
X0026023Y0004349D01*
X0025910Y0004502D01*
X0025800Y0004657D01*
X0025694Y0004815D01*
X0025591Y0004975D01*
X0025493Y0005138D01*
X0025398Y0005303D01*
X0025308Y0005471D01*
X0025222Y0005640D01*
X0025139Y0005812D01*
X0025061Y0005985D01*
X0024987Y0006161D01*
X0024918Y0006338D01*
X0024852Y0006517D01*
X0024791Y0006697D01*
X0024735Y0006878D01*
X0024683Y0007061D01*
X0024635Y0007246D01*
X0024592Y0007431D01*
X0024553Y0007617D01*
X0024518Y0007804D01*
X0024489Y0007992D01*
X0024463Y0008181D01*
X0024443Y0008370D01*
X0024427Y0008560D01*
X0024415Y0008750D01*
X0024408Y0008940D01*
X0024406Y0009130D01*
D11*
X0092507Y0073756D03*
X0098806Y0073756D03*
X0108757Y0073756D03*
X0115056Y0073756D03*
X0115056Y0083756D03*
X0108757Y0083756D03*
X0098806Y0083756D03*
X0092507Y0083756D03*
X0080056Y0092506D03*
X0073757Y0092506D03*
X0066306Y0080006D03*
X0060007Y0080006D03*
X0070632Y0139381D03*
X0076931Y0139381D03*
D12*
X0091906Y0059848D03*
X0091906Y0040163D03*
X0136906Y0040163D03*
X0136906Y0059848D03*
D13*
X0079278Y0100006D03*
X0079278Y0105006D03*
X0079278Y0110006D03*
X0079278Y0115006D03*
X0079278Y0120006D03*
X0079278Y0125006D03*
X0079278Y0130006D03*
X0057034Y0130006D03*
X0057034Y0125006D03*
X0057034Y0120006D03*
X0057034Y0115006D03*
X0057034Y0110006D03*
X0057034Y0105006D03*
X0057034Y0100006D03*
D14*
X0103973Y0057506D03*
X0103973Y0052506D03*
X0103973Y0047506D03*
X0103973Y0042506D03*
X0124839Y0042506D03*
X0124839Y0047506D03*
X0124839Y0052506D03*
X0124839Y0057506D03*
D15*
X0138225Y0097506D03*
X0138225Y0102506D03*
X0138225Y0107506D03*
X0138225Y0112506D03*
X0138225Y0117506D03*
X0138225Y0122506D03*
X0138225Y0127506D03*
X0138225Y0132506D03*
X0100587Y0132506D03*
X0100587Y0127506D03*
X0100587Y0122506D03*
X0100587Y0117506D03*
X0100587Y0112506D03*
X0100587Y0107506D03*
X0100587Y0102506D03*
X0100587Y0097506D03*
D16*
X0103156Y0168287D02*
X0103156Y0174224D01*
X0093156Y0174224D02*
X0093156Y0168287D01*
X0083156Y0168287D02*
X0083156Y0174224D01*
X0073156Y0174224D02*
X0073156Y0168287D01*
X0063156Y0168287D02*
X0063156Y0174224D01*
D17*
X0059879Y0039179D03*
X0068934Y0039179D03*
D18*
X0064406Y0060833D03*
D19*
X0066699Y0087250D03*
X0066699Y0092762D03*
X0059613Y0092762D03*
X0059613Y0087250D03*
D20*
X0059613Y0090006D03*
D21*
X0181818Y0100006D02*
X0189495Y0100006D01*
X0189495Y0120006D02*
X0181818Y0120006D01*
X0181818Y0140006D02*
X0189495Y0140006D01*
X0189495Y0080006D02*
X0181818Y0080006D01*
X0181818Y0060006D02*
X0189495Y0060006D01*
X0189495Y0040006D02*
X0181818Y0040006D01*
D22*
X0187792Y0015035D03*
X0038186Y0015035D03*
X0038186Y0164642D03*
X0187792Y0164642D03*
M02*
